<svg width="339" height="108" viewBox="0 0 339 108" fill="none" xmlns="http://www.w3.org/2000/svg">
<g clip-path="url(#clip0_3385_171802)">
<path d="M49.3346 80.965C50.314 77.4391 51.979 74.6967 54.4276 72.7379C56.8761 70.6811 59.8144 69.7017 63.2424 69.7017C66.5724 69.7017 69.4127 70.6811 71.7633 72.6399C74.1139 74.5988 75.7789 77.3411 76.7584 80.965H49.3346ZM85.1813 87.8209V86.6456C85.1813 83.6094 84.8875 80.965 84.2999 78.6144C83.7122 76.2638 82.7328 74.1091 81.5575 72.1502C79.4028 69.0161 76.7583 66.5675 73.5263 64.8046C70.2942 63.0416 66.7683 62.1602 63.0465 62.1602C59.9123 62.1602 56.9741 62.7478 54.2317 63.9231C51.5873 65.0984 49.1387 66.8614 46.984 69.212C45.0252 71.3667 43.4581 73.8152 42.4787 76.3617C41.4993 79.0062 40.9116 81.8465 40.9116 84.8827C40.9116 87.8209 41.4993 90.6612 42.5766 93.5016C43.7519 96.3419 45.319 98.7904 47.2778 100.847C49.4326 103.1 51.7832 104.765 54.4276 105.94C57.072 107.018 59.9123 107.605 63.1444 107.605C67.8456 107.605 71.9592 106.332 75.4851 103.785C79.011 101.239 81.7534 97.6151 83.8101 92.9139H75.0933C73.8201 95.0686 72.1551 96.8316 70.0983 98.0069C68.0415 99.1822 65.6909 99.7698 63.1444 99.7698C59.6185 99.7698 56.5823 98.6925 53.9379 96.4398C51.3914 94.1872 49.7264 91.3468 49.1387 87.723H85.1813V87.8209Z" fill="white"/>
<path d="M98.0684 106.444V74.3867H90.2158V106.444H98.0684Z" fill="white"/>
<path fill-rule="evenodd" clip-rule="evenodd" d="M96.2026 64.281C116.681 57.4978 130.278 49.3373 129.504 43.2549C128.409 34.6506 98.9691 33.4633 63.7488 40.6029C28.5286 47.7424 0.864884 60.5053 1.96028 69.1095C2.67585 74.7303 15.4873 77.186 34.1045 76.2228C19.3318 76.4305 9.35461 73.878 8.71282 68.8368C7.65903 60.5593 32.1728 48.7067 63.4659 42.3632C94.759 36.0197 120.981 37.5875 122.035 45.865C122.729 51.3178 112.328 58.3222 96.2026 64.281Z" fill="white"/>
<path d="M55.395 56.5404C56.9793 54.2121 61.6969 47.1724 63.4689 44.7655C81.8439 20.4647 104.941 2.36292 113.77 8.03657C119.296 11.6361 121.307 16.129 115.31 29.7962C123.93 13.2412 123.161 5.89717 116.833 1.75865C108.004 -3.915 84.8153 14.1836 66.5322 38.4876C63.0923 43.0495 56.9782 52.339 54.3728 56.76C54.6482 56.7696 55.0195 56.6975 55.395 56.5404Z" fill="white"/>
<path fill-rule="evenodd" clip-rule="evenodd" d="M76.5647 59.6353C73.5766 53.9635 69.5163 47.6473 64.5924 41.2231C50.0507 22.2504 33.4834 9.52055 27.5883 12.7902C21.6932 16.0598 28.7026 34.0908 43.2443 53.0634C45.4257 55.9095 47.6527 58.6151 49.8824 61.1473C48.2517 61.9183 46.7066 62.8102 45.2655 63.8104C43.1261 61.2279 41.0148 58.477 38.9701 55.5868C24.4852 35.1121 18.8259 15.4 26.3297 11.5585C33.8335 7.71698 51.6589 21.2008 66.1438 41.6754C70.5464 47.8985 74.1336 54.0511 76.7837 59.709C76.7109 59.6842 76.6379 59.6596 76.5647 59.6353Z" fill="white"/>
<circle cx="94.0712" cy="65.16" r="4.995" fill="white"/>
<ellipse cx="116.48" cy="27.3839" rx="3.14535" ry="2.92594" fill="white"/>
<ellipse cx="38.5121" cy="14.4071" rx="4.28402" ry="3.98519" fill="white"/>
<circle cx="301.313" cy="44.2024" r="2.70821" fill="white"/>
<circle cx="173.006" cy="44.2024" r="2.70821" fill="white"/>
<path d="M299.295 83.2515V52.2472H303.503V83.2515H299.295Z" fill="white"/>
<path d="M310.589 83.2515V52.2472H314.548V56.8979C315.249 55.7352 316.107 54.7663 317.122 53.9912C318.137 53.1977 319.272 52.5979 320.527 52.1919C321.782 51.7674 323.083 51.5552 324.43 51.5552C326.147 51.5552 327.808 51.8689 329.413 52.4964C331.037 53.1054 332.504 54.0189 333.815 55.2369C335.125 56.4549 336.149 57.9498 336.888 59.7215C337.644 61.4747 338.023 63.4771 338.023 65.7286V83.2515H333.953V65.7286C333.953 63.5693 333.492 61.7331 332.569 60.2198C331.646 58.7065 330.438 57.5807 328.943 56.8425C327.466 56.0858 325.888 55.7075 324.209 55.7075C322.585 55.7075 321.053 56.0674 319.614 56.7871C318.174 57.5069 317.012 58.5957 316.126 60.0537C315.24 61.4931 314.797 63.2187 314.797 65.2303V83.2515H310.589Z" fill="white"/>
<path d="M261.287 67.5552C261.342 65.0823 261.831 62.8492 262.754 60.8561C263.677 58.8445 264.904 57.1466 266.436 55.7625C267.986 54.3599 269.702 53.2988 271.585 52.579C273.467 51.8593 275.386 51.481 277.343 51.4441C279.336 51.4441 281.274 51.8039 283.156 52.5237C285.057 53.2434 286.782 54.3138 288.333 55.7348C289.901 57.1559 291.147 58.9275 292.07 61.0499C293.011 63.1537 293.482 65.599 293.482 68.3857V69.1885H265.495C265.624 70.9232 266.067 72.4735 266.823 73.8391C267.598 75.2048 268.567 76.3398 269.73 77.2441C270.893 78.1299 272.129 78.7943 273.439 79.2372C274.768 79.6801 276.032 79.9016 277.232 79.9016C279.52 79.9016 281.763 79.2372 283.959 77.9084C286.173 76.5797 287.631 74.9556 288.333 73.0363H292.651C291.987 74.8634 291.082 76.4782 289.938 77.8808C288.794 79.2649 287.521 80.3999 286.118 81.2857C284.734 82.1715 283.239 82.8359 281.633 83.2788C280.046 83.7217 278.496 83.9432 276.983 83.9432C274.288 83.8325 271.723 83.0943 269.287 81.7286C266.851 80.3445 264.904 78.4344 263.446 75.9984C262.007 73.5438 261.287 70.7295 261.287 67.5552ZM289.412 65.4514C289.08 63.7166 288.342 62.0741 287.198 60.5239C286.072 58.9552 284.651 57.7187 282.935 56.8144C281.237 55.9101 279.41 55.458 277.453 55.458C274.796 55.458 272.581 56.0947 270.81 57.3681C269.038 58.623 267.737 60.0348 266.906 61.6035C266.094 63.1537 265.624 64.4363 265.495 65.4514H289.412Z" fill="white"/>
<path d="M248.76 83.2517V56.0399H242.255V52.2474H248.76V41.2852H252.968V52.2474H260.165V56.0399H252.968V83.2517H248.76Z" fill="white"/>
<path d="M182.074 83.2517V52.2474H186.032V56.8981C186.734 55.7354 187.592 54.7665 188.607 53.9914C189.622 53.1979 190.757 52.5981 192.012 52.1921C193.267 51.7676 194.568 51.5554 195.915 51.5554C197.631 51.5554 199.292 51.8691 200.898 52.4966C202.522 53.1056 203.989 54.0191 205.299 55.2371C206.61 56.4552 207.634 57.95 208.372 59.7217C209.129 61.4749 209.507 63.4773 209.507 65.7288V83.2517H205.438V65.7288C205.438 63.5695 204.976 61.7333 204.054 60.22C203.131 58.7067 201.922 57.5809 200.427 56.8427C198.951 56.0861 197.373 55.7077 195.694 55.7077C194.07 55.7077 192.538 56.0676 191.098 56.7873C189.659 57.5071 188.496 58.5959 187.61 60.0539C186.724 61.4934 186.282 63.2189 186.282 65.2305V83.2517H182.074Z" fill="white"/>
<path d="M170.779 83.2514V52.2471H174.987V83.2514H170.779Z" fill="white"/>
<path d="M132.771 67.5554C132.827 65.0825 133.316 62.8494 134.239 60.8563C135.161 58.8447 136.389 57.1468 137.92 55.7627C139.471 54.3601 141.187 53.299 143.069 52.5792C144.952 51.8595 146.871 51.4812 148.827 51.4443C150.82 51.4443 152.758 51.8041 154.641 52.5239C156.541 53.2436 158.267 54.314 159.817 55.735C161.386 57.1561 162.632 58.9277 163.554 61.0501C164.496 63.1539 164.966 65.5992 164.966 68.3859V69.1887H136.979C137.108 70.9235 137.551 72.4737 138.308 73.8393C139.083 75.205 140.052 76.34 141.215 77.2443C142.377 78.1301 143.614 78.7945 144.924 79.2374C146.253 79.6803 147.517 79.9018 148.717 79.9018C151.005 79.9018 153.247 79.2374 155.443 77.9086C157.658 76.5799 159.116 74.9559 159.817 73.0365H164.136C163.471 74.8636 162.567 76.4784 161.423 77.881C160.279 79.2651 159.005 80.4001 157.603 81.2859C156.218 82.1717 154.724 82.8361 153.118 83.279C151.531 83.722 149.981 83.9434 148.467 83.9434C145.773 83.8327 143.208 83.0945 140.772 81.7288C138.336 80.3447 136.389 78.4346 134.931 75.9986C133.491 73.5441 132.771 70.7297 132.771 67.5554ZM160.897 65.4516C160.565 63.7168 159.826 62.0743 158.682 60.5241C157.556 58.9554 156.135 57.7189 154.419 56.8147C152.721 55.9104 150.894 55.4582 148.938 55.4582C146.28 55.4582 144.066 56.0949 142.294 57.3683C140.523 58.6232 139.221 60.035 138.391 61.6037C137.579 63.1539 137.108 64.4365 136.979 65.4516H160.897Z" fill="white"/>
<path d="M226.357 84.0155C234.115 84.0155 239.098 79.9155 239.098 73.9864C239.098 66.9218 231.907 66.1649 227.05 65.5341C222.635 64.9665 218.598 64.5249 218.598 60.6773C218.598 57.4604 221.437 55.0635 226.23 55.0635C231.024 55.0635 233.863 57.4604 234.052 60.5511H238.215C238.089 55.2527 233.61 51.2158 226.294 51.2158C218.977 51.2158 214.372 55.1896 214.372 61.0557C214.372 67.931 220.743 68.8141 226.357 69.5079C230.835 70.0756 234.809 70.5172 234.809 74.3017C234.809 77.6448 231.781 80.1678 226.357 80.1678C221.121 80.1678 218.094 77.7709 217.904 74.4279H213.615C213.804 79.9155 218.661 84.0155 226.357 84.0155Z" fill="white"/>
<path d="M210.77 90.9919H213.38L218.908 100.946L224.415 90.9919H226.883V106.493H224.619V94.3574L219.805 103.026H217.847L213.034 94.3166V106.493H210.77V90.9919Z" fill="white"/>
<path d="M235.658 90.9919H245.489V92.9092H237.922V97.6005H244.653V99.5178H237.922V104.576H245.775V106.493H235.658V90.9919Z" fill="white"/>
<path d="M253.993 90.9919H259.745C261.472 90.9919 262.948 91.3047 264.171 91.9302C265.409 92.5421 266.361 93.4259 267.027 94.5818C267.693 95.7376 268.026 97.1177 268.026 98.7223C268.026 100.368 267.686 101.768 267.007 102.924C266.34 104.08 265.368 104.964 264.09 105.576C262.812 106.187 261.261 106.493 259.439 106.493H253.993V90.9919ZM259.419 104.556C263.539 104.556 265.599 102.618 265.599 98.7427C265.599 94.8673 263.546 92.9296 259.439 92.9296H256.319V104.556H259.419Z" fill="white"/>
<path d="M275.854 90.9919H278.2V106.493H275.854V90.9919Z" fill="white"/>
<path d="M287.081 102.944C286.401 101.761 286.061 100.395 286.061 98.8447C286.061 97.6617 286.265 96.5806 286.673 95.6016C287.081 94.609 287.652 93.7523 288.386 93.0316C289.134 92.3109 290.018 91.7534 291.038 91.3591C292.057 90.9647 293.179 90.7676 294.403 90.7676C295.233 90.7676 296.082 90.8832 296.953 91.1143C297.823 91.3455 298.571 91.6514 299.196 92.0322L298.788 94.0718C297.959 93.6503 297.184 93.3444 296.463 93.154C295.756 92.9636 295.035 92.8684 294.301 92.8684C293.145 92.8684 292.132 93.12 291.262 93.6231C290.392 94.1126 289.712 94.7993 289.222 95.6832C288.733 96.567 288.488 97.5937 288.488 98.7631C288.488 99.9597 288.726 101 289.202 101.884C289.691 102.754 290.378 103.427 291.262 103.903C292.146 104.379 293.179 104.617 294.362 104.617C295.083 104.617 295.858 104.515 296.687 104.311C297.517 104.107 298.306 103.821 299.054 103.454L299.319 105.494C297.755 106.31 296.048 106.718 294.199 106.718C292.595 106.718 291.18 106.385 289.957 105.718C288.733 105.052 287.774 104.127 287.081 102.944Z" fill="white"/>
<path d="M312.038 90.9919H314.547L320.789 106.493H318.3L316.607 102.047H309.836L308.143 106.493H305.777L312.038 90.9919ZM315.893 100.17L313.221 93.0928L310.549 100.17H315.893Z" fill="white"/>
<path d="M328.052 90.9919H330.397V104.535H337.781V106.493H328.052V90.9919Z" fill="white"/>
</g>
<defs>
<clipPath id="clip0_3385_171802">
<rect width="339" height="108" fill="white"/>
</clipPath>
</defs>
</svg>
